<svg xmlns="http://www.w3.org/2000/svg" width="245" height="35" viewBox="-181 415 245 35"><style type="text/css">  
	.st0{fill:#324B5C;}
</style><path class="st0" d="M-151.3 423.5c0-1.2-1-2.2-2.2-2.2l-13.9 0 -6.1 0c-1.2 0-2.2 1-2.2 2.2l0 1.1 0 11.1c0 1.2 1 2.2 2.2 2.2l8.9 0 6.7 6.7 0-5.6c0-0.6 0.5-1.1 1.1-1.1l3.3 0c1.2 0 2.2-1 2.2-2.2L-151.3 423.5zM-169.1 431.4c-0.9 0-1.7-0.7-1.7-1.7 0-0.9 0.7-1.7 1.7-1.7 0.9 0 1.7 0.7 1.7 1.7C-167.4 430.6-168.1 431.4-169.1 431.4M-163.5 431.3c-0.9 0-1.7-0.7-1.7-1.7 0-0.9 0.7-1.7 1.7-1.7 0.9 0 1.7 0.7 1.7 1.7C-161.8 430.6-162.6 431.3-163.5 431.3M-157.9 431.3c-0.9 0-1.7-0.7-1.7-1.7 0-0.9 0.7-1.7 1.7-1.7 0.9 0 1.7 0.7 1.7 1.7C-156.3 430.6-157 431.3-157.9 431.3"/><path class="st0" d="M-119.3 426.8l2.3-3.8 -1.5-1.5 -3.8 2.3 0 1.5 -5 5 -2.4-2.4c-0.6-0.6-0.8-1.4-0.8-2.2 0.1-1.2-0.3-2.4-1.2-3.3 -0.4-0.4-0.9-0.8-1.5-1l0.9 3.3 -1.9 1.9 -2.6-0.7 -0.9-3.3c-1.4 1.6-1.3 4.1 0.2 5.6 0.8 0.8 1.8 1.2 2.9 1.2 1.2 0 2.4 0.5 3.3 1.3l1.8 1.8 -0.9 0.9h-1.5l-7.7 7.6v1.5l1.5 1.5h1.5l7.7-7.6v-1.5l8.2-8.2L-119.3 426.8z"/><path class="st0" d="M-116.9 441.5c-0.1-0.1-0.2-0.2-0.2-0.2l-8-8.3 -2.3 2.3 8 8.3c0 0 0.2 0.1 0.2 0.2 0.2 0.2 0.5 0.3 0.9 0.3 0.8 0 1.6-0.7 1.6-1.6C-116.7 442-116.8 441.7-116.9 441.5"/><path class="st0" d="M-91.1 435.2c2.3-2.3 4.5-4.9 3.4-6 -1.5-1.5-2.8-2.4-0.1-5.7 2.7-3.3 4.4-0.7 5.9 0.7 1.7 1.7 0.1 7.9-6.1 14 -6.2 6.1-12.4 7.7-14.1 6 -1.4-1.5-4-3.2-0.7-5.9 3.3-2.6 4.2-1.3 5.7 0.2C-96 439.6-93.3 437.4-91.1 435.2M-94.4 424.3c-1.7 0.3-3.5 1.1-5 2.5 -1.4 1.4-2.3 3.2-2.5 5 0 0-0.1 0.7 0.4 1.2 0.5 0.5 1.4 0.5 1.9 0 0.3-0.3 0.4-0.7 0.4-0.7 0.2-0.9 0.4-2.1 1.8-3.5 1.4-1.4 2.6-1.6 3.5-1.8 0 0 0.4-0.1 0.7-0.4 0.5-0.5 0.5-1.4 0-1.9C-93.7 424.2-94.4 424.3-94.4 424.3M-100.8 425.4c2.5-2.5 5.3-3.6 7.6-3.2 0 0 0.7 0.1 1.2-0.4 0.5-0.5 0.5-1.4 0-1.9 -0.3-0.3-0.8-0.4-0.8-0.4 -2-0.3-6 0.1-9.9 4 -3.9 3.9-4.3 7.9-4 9.9 0 0 0.1 0.5 0.4 0.8 0.5 0.5 1.4 0.5 1.9 0 0.5-0.5 0.4-1.2 0.4-1.2C-104.4 430.7-103.4 427.9-100.8 425.4"/><rect x="28.3" y="415" class="st0" width="35.7" height="35"/></svg>