<svg xmlns="http://www.w3.org/2000/svg" viewBox="0 0 360 76.8"><style type="text/css">.st0{fill:#FFFFFF;}.st1{fill:none;}</style><path class="st0" d="M129.4 0.9H128l-4.9 12.4h1.3l1.3-3.3h5.9l1.3 3.3h1.4L129.4 0.9zM131.2 8.8h-5l2.5-6.5L131.2 8.8zM139.5 4.4c-1.2 0-2.2 0.5-2.9 1.4l0-1.1h-1.2l0 0.1c0 0.1 0 0.3 0 0.4 0 0.5 0.1 1 0.1 1.5v9.9h1.2v-4.4c0.7 0.9 1.7 1.4 2.9 1.4 2.4 0 3.5-2.3 3.5-4.6C143.1 6.7 142.2 4.4 139.5 4.4zM141.8 8.8c0 0.8-0.2 3.6-2.3 3.6 -2.4 0-2.8-2.3-2.8-3.7 0-0.8 0.2-3.3 2.6-3.3C141.2 5.5 141.8 7.2 141.8 8.8zM148.5 4.4c-1.2 0-2.2 0.5-2.9 1.4l0-1.1h-1.2l0 0.1c0 0.1 0 0.3 0 0.4 0 0.5 0.1 1 0.1 1.5v9.9h1.2v-4.4c0.7 0.9 1.7 1.4 2.9 1.4 2.4 0 3.5-2.3 3.5-4.6C152.1 6.7 151.2 4.4 148.5 4.4zM150.8 8.8c0 0.8-0.2 3.6-2.3 3.6 -2.4 0-2.8-2.3-2.8-3.7 0-0.8 0.2-3.3 2.6-3.3C150.2 5.5 150.8 7.2 150.8 8.8zM154 0.9h1.2v12.4H154V0.9zM157.4 0.9h1.4v1.5h-1.4V0.9zM157.5 4.6h1.2v8.7h-1.2V4.6zM166.4 10.5h1.3l0 0.1c-0.3 2-1.4 3-3.4 3 -2.6 0-3.8-2.3-3.8-4.6 0-2.2 1.2-4.6 3.9-4.6 1.9 0 3.3 1.2 3.3 2.9l0 0.1h-1.3l0-0.1c-0.1-1.2-0.8-1.8-2.2-1.8 -1.6 0-2.4 1.7-2.4 3.5 0 1.7 0.8 3.5 2.4 3.5C165.4 12.4 166.3 11.7 166.4 10.5L166.4 10.5zM175.6 12.8c0-0.4-0.1-1-0.1-1.5v-4c0-0.9-0.2-1.6-0.7-2.1 -0.5-0.5-1.3-0.8-2.4-0.8 -2.4 0-3.1 1.3-3.3 2.5l0 0.1h1.3l0-0.1c0.1-0.9 0.7-1.4 2-1.4 1.3 0 1.8 0.5 1.9 1.7v0.7c-0.3 0-0.6 0-0.9 0 -1 0-2 0-2.9 0.4 -1.1 0.5-1.8 1.4-1.8 2.5 0 1.6 1.2 2.7 2.9 2.7 1.2 0 2.2-0.6 2.6-1.3l0 1h1.2l0-0.1C175.6 13.1 175.6 12.9 175.6 12.8zM171.9 12.4c-0.9 0-1.8-0.4-1.8-1.6 0-1.8 2.3-1.8 3.8-1.8 0.2 0 0.3 0 0.5 0 0.1 1.3-0.2 2.2-0.7 2.8C173.2 12.2 172.7 12.4 171.9 12.4zM181.6 12.3l0.1 0v1.1l-0.1 0c-0.3 0.1-0.7 0.2-1.1 0.2 -0.8 0-1.3-0.2-1.6-0.5 -0.5-0.5-0.5-1.3-0.5-1.9V5.8h-1.7V4.6h1.7V2.9l1.2-0.5v2.3h1.9v1.1h-1.9v5.6c0 0.4 0.1 0.6 0.3 0.8 0.2 0.2 0.4 0.3 0.8 0.3C181 12.4 181.3 12.4 181.6 12.3zM183.3 4.6h1.2v8.7h-1.2V4.6zM183.2 0.9h1.4v1.5h-1.4V0.9zM190.2 4.4c-1.3 0-2.3 0.5-3.1 1.4 -0.6 0.8-1 1.9-1 3.1 0 1.2 0.3 2.3 1 3.1 0.7 0.9 1.8 1.4 3.1 1.4 1.3 0 2.3-0.5 3.1-1.4 0.6-0.8 1-1.9 1-3.1 0-1.2-0.3-2.3-1-3.1C192.5 4.9 191.5 4.4 190.2 4.4zM190.2 12.4c-1.9 0-2.8-1.8-2.8-3.5 0-1.7 0.9-3.5 2.8-3.5 1.9 0 2.8 1.8 2.8 3.5C193 10.6 192.1 12.4 190.2 12.4zM202.8 7.9v5.4h-1.2V7.7c0-1.4-0.8-2.2-2.1-2.2 -1.7 0-2.3 1.5-2.3 2.8v5h-1.2V6.6c0-0.5 0-1.1-0.1-1.6l0-0.4h1.2l0 1.1c0.6-0.9 1.5-1.4 2.6-1.4C200.9 4.4 202.8 4.8 202.8 7.9zM211.4 10.7c0 2-1.8 2.9-3.7 2.9 -1.5 0-3.3-0.7-3.3-2.7v-0.1h1.3l0 0.1c0.1 1.3 1.3 1.5 2.3 1.5 1.1 0 2.1-0.5 2.1-1.6 0-1.1-1.1-1.3-2.3-1.6l-0.3-0.1c-1.2-0.3-2.8-0.7-2.8-2.4 0-1.8 1.7-2.5 3.2-2.5 2 0 3.1 0.8 3.2 2.4l0 0.1h-1.3l0-0.1c-0.1-1.1-1.1-1.3-2-1.3 -0.9 0-1.8 0.3-1.8 1.3 0 0.8 0.8 1 2 1.3 0.6 0.1 1.2 0.3 1.9 0.5C210.8 9 211.4 9.7 211.4 10.7zM226.8 5.8l0-0.5h-1.4l0 0.1c0.1 1.4-0.2 3.1-0.7 4.3l-3.4-3.6c1-0.7 2.2-1.7 2.2-3.2 0-1.6-1.5-2.3-2.8-2.3 -1.3 0-2.8 0.7-2.8 2.3 0 1.2 0.8 2.2 1.6 3l0 0 -0.1 0.1c-1.4 0.9-2.9 1.9-2.9 3.8 0 2.2 1.9 3.7 4.6 3.7 1.5 0 2.7-0.6 3.7-1.8l1.4 1.6h1.8l-2.4-2.6C226.5 9.2 226.7 7.5 226.8 5.8zM219.4 3c0-1 1.1-1.1 1.4-1.1 0.7 0 1.4 0.3 1.4 1.1 0 0.8-0.7 1.4-1.3 2 -0.1 0.1-0.2 0.2-0.3 0.3C219.8 4.4 219.4 3.6 219.4 3zM220.4 6.9l3.7 4c-1 1-1.9 1.5-3.1 1.5 -1.5 0-3.1-1-3.1-2.7C217.9 8.6 219.7 7.3 220.4 6.9zM236.4 0.9c-0.1 0-0.2 0-0.3 0H233v12.4h1.3V8h1.9c0.1 0 0.2 0 0.3 0h0c3.1 0 4.8-1.2 4.8-3.5C241.2 2.1 239.6 0.9 236.4 0.9zM236.9 6.8h-2.6V2.1h2.6c2 0 3 0.8 3 2.3C239.8 6 238.8 6.8 236.9 6.8zM242.8 0.9h1.2v12.4h-1.2V0.9zM252.4 12.8c0-0.4-0.1-1-0.1-1.5v-4c0-0.9-0.2-1.6-0.7-2.1 -0.5-0.5-1.3-0.8-2.4-0.8 -2.4 0-3.1 1.3-3.3 2.5l0 0.1h1.3l0-0.1c0.1-0.9 0.7-1.4 2-1.4 1.3 0 1.8 0.5 1.9 1.7v0.7c-0.3 0-0.6 0-0.9 0 -1 0-2 0-2.9 0.4 -1.1 0.5-1.8 1.4-1.8 2.5 0 1.6 1.2 2.7 2.9 2.7 1.2 0 2.2-0.6 2.6-1.3l0 1h1.2l0-0.1C252.4 13.1 252.4 12.9 252.4 12.8zM248.7 12.4c-0.9 0-1.8-0.4-1.8-1.6 0-1.8 2.3-1.8 3.8-1.8 0.2 0 0.3 0 0.5 0 0.1 1.3-0.2 2.2-0.7 2.8C250 12.2 249.4 12.4 248.7 12.4zM258.3 12.3l0.1 0v1.1l-0.1 0c-0.3 0.1-0.7 0.2-1.1 0.2 -0.8 0-1.3-0.2-1.6-0.5 -0.5-0.5-0.5-1.3-0.5-1.9V5.8h-1.7V4.6h1.7V2.9l1.2-0.5v2.3h1.9v1.1h-1.9v5.6c0 0.4 0.1 0.6 0.3 0.8 0.2 0.2 0.5 0.3 0.8 0.3C257.8 12.4 258.1 12.4 258.3 12.3zM264.4 0.9L264.4 0.9l0.1 1 -0.1 0c-0.2 0-0.4-0.1-0.6-0.1 -0.5 0-0.8 0.1-1 0.3 -0.3 0.3-0.3 0.8-0.2 1.5v1h1.9v1.1h-1.9v7.6h-1.2V5.8h-1.7V4.6h1.7V2.9c0-1.5 0.7-2.2 2.1-2.2 0.2 0 0.5 0.1 0.7 0.1C264.2 0.9 264.3 0.9 264.4 0.9zM269 4.4c-1.3 0-2.3 0.5-3.1 1.4 -0.6 0.8-1 1.9-1 3.1 0 1.2 0.3 2.3 1 3.1 0.7 0.9 1.8 1.4 3.1 1.4 1.3 0 2.3-0.5 3.1-1.4 0.6-0.8 1-1.9 1-3.1 0-1.2-0.3-2.3-1-3.1C271.3 4.9 270.3 4.4 269 4.4zM269 12.4c-1.9 0-2.8-1.8-2.8-3.5 0-1.7 0.9-3.5 2.8-3.5 1.9 0 2.8 1.8 2.8 3.5C271.8 10.6 270.9 12.4 269 12.4zM278.5 4.4l0.1 0v1.2l-0.1 0c-0.1 0-0.2 0-0.3 0 -0.1 0-0.3 0-0.4 0 -1.4 0-2.2 1-2.2 2.6v5.2h-1.2V6.6c0-0.5 0-1-0.1-1.5 0-0.2 0-0.3 0-0.4l0-0.1h1.2l0 1c0.4-0.7 1.1-1.2 1.9-1.3C277.8 4.4 278.2 4.4 278.5 4.4zM292.6 7.9v5.4h-1.2V7.7c0-1.4-0.8-2.2-2.1-2.2 -1.7 0-2.3 1.5-2.3 2.8v5h-1.2V7.7c0-1.4-0.8-2.2-2.1-2.2 -1.7 0-2.3 1.5-2.3 2.8v5H280V6.6c0-0.6 0-1.1-0.1-1.6l0-0.4h1.2l0 1.1c0.6-0.9 1.5-1.4 2.6-1.4 1.3 0 2.3 0.7 2.8 1.7 0.8-1.1 1.8-1.7 2.9-1.7C290.6 4.4 292.6 4.8 292.6 7.9zM306.9 10c0 2.3-1.7 3.6-4.8 3.6 -2.1 0-3.7-1.5-3.7-3.5l0-0.1h1.4l0 0.1c0 1.6 1 2.3 3 2.3 1.4 0 2.8-0.8 2.8-2.3 0-1-0.6-1.6-1.8-2 -0.2-0.1-0.4-0.1-0.7-0.2 -2-0.6-4.4-1.4-4.4-3.8 0-2.2 2.1-3.4 4-3.4 1.1 0 3.8 0.3 4.1 3l0 0.1h-1.4l0-0.1c0-1.6-1.6-1.8-2.6-1.8 -1.1 0-2.7 0.5-2.7 2 0 1.6 1.5 2.1 3.1 2.6C305 7.1 306.9 7.7 306.9 10zM312 4.4c-2.7 0-3.9 2.4-3.9 4.6 0 2.3 1.2 4.6 3.8 4.6 2.1 0 3.4-1 3.9-3l0-0.1h-1.3l0 0.1c-0.2 1.2-1.2 2-2.4 2 -2.4 0-2.8-2.1-2.8-3.1h6.6V9.2C316 6.1 314.6 4.4 312 4.4zM309.5 8.2c0.1-1.3 0.9-2.7 2.6-2.7 1.5 0 2.5 1 2.6 2.7H309.5zM321.6 4.4l0.1 0v1.2l-0.1 0c-0.1 0-0.2 0-0.3 0 -0.1 0-0.2 0-0.4 0 -1.4 0-2.2 1-2.2 2.6v5.2h-1.2V6.6c0-0.5 0-1-0.1-1.5 0-0.2 0-0.3 0-0.4l0-0.1h1.2l0 1c0.4-0.7 1.1-1.2 1.9-1.3C320.9 4.4 321.3 4.4 321.6 4.4zM329.5 4.6h1.3l-0.1 0.1 -3.4 8.5h-1.3l0-0.1 -3.5-8.6h1.3l0 0.1 2.8 6.9L329.5 4.6zM332.1 0.9h1.4v1.5h-1.4V0.9zM332.2 4.6h1.2v8.7h-1.2V4.6zM340.7 10.5h1.3l0 0.1c-0.3 2-1.4 3-3.4 3 -2.6 0-3.8-2.3-3.8-4.6 0-2.2 1.2-4.6 3.9-4.6 1.9 0 3.3 1.2 3.3 2.9l0 0.1h-1.3l0-0.1c-0.1-1.2-0.8-1.8-2.2-1.8 -1.6 0-2.4 1.7-2.4 3.5 0 1.7 0.8 3.5 2.4 3.5C339.8 12.4 340.6 11.7 340.7 10.5L340.7 10.5zM347 4.4c-2.7 0-3.9 2.4-3.9 4.6 0 2.3 1.2 4.6 3.8 4.6 2.1 0 3.4-1 3.9-3l0-0.1h-1.3l0 0.1c-0.2 1.2-1.2 2-2.4 2 -2.4 0-2.8-2.1-2.8-3.1h6.6V9.2C351 6.1 349.6 4.4 347 4.4zM344.5 8.2c0.1-1.3 0.9-2.7 2.6-2.7 1.5 0 2.5 1 2.7 2.7H344.5zM358.9 10.7c0 2-1.8 2.9-3.7 2.9 -1.5 0-3.3-0.7-3.3-2.7l0-0.1h1.3l0 0.1c0.1 1.3 1.3 1.5 2.3 1.5 1.1 0 2.1-0.5 2.1-1.6 0-1.1-1.1-1.3-2.3-1.6L355 9.2c-1.2-0.3-2.8-0.7-2.8-2.4 0-1.8 1.7-2.5 3.2-2.5 2 0 3.1 0.8 3.2 2.4l0 0.1h-1.3l0-0.1c-0.1-1.1-1.1-1.3-2-1.3 -0.9 0-1.8 0.3-1.8 1.3 0 0.8 0.8 1 2 1.3 0.6 0.1 1.2 0.3 1.9 0.5C358.3 9 358.9 9.7 358.9 10.7z"/><path class="st0" d="M1.1 0.9h1.3v12.5H1.1V0.9zM8.4 4.4c-1.1 0-2 0.5-2.6 1.4l0-1.1H4.5l0 0.4c0 0.5 0.1 1 0.1 1.6v6.7h1.2v-5c0-1.3 0.6-2.8 2.3-2.8 1.3 0 2.1 0.8 2.1 2.2v5.6h1.2V7.9C11.5 4.8 9.5 4.4 8.4 4.4zM16.6 12.4c-0.4 0-0.6-0.1-0.8-0.3 -0.2-0.2-0.3-0.5-0.3-0.8V5.8h1.9V4.6h-1.9V2.3l-1.2 0.5v1.8h-1.7v1.1h1.7v5.4c0 0.7 0 1.4 0.5 1.9 0.3 0.3 0.9 0.5 1.6 0.5 0.4 0 0.8-0.1 1.1-0.2l0.1 0v-1.1l-0.1 0C17.2 12.4 16.9 12.4 16.6 12.4zM26.2 9.2L26.2 9.2l-6.6 0.1c0 1 0.4 3.1 2.8 3.1 1.1 0 2.1-0.8 2.4-2l0-0.1h1.3l0 0.1c-0.5 2-1.8 3-3.9 3 -2.6 0-3.8-2.3-3.8-4.6 0-2.2 1.2-4.6 3.9-4.6C24.8 4.4 26.2 6.1 26.2 9.2zM24.9 8.2c-0.2-1.7-1.1-2.7-2.7-2.7 -1.7 0-2.4 1.4-2.6 2.7H24.9zM34.2 4.6h1.2l0 0.4c0 0.5-0.1 1.1-0.1 1.6v5.3c0 1.6 0 3.4-1.8 4.2 -0.7 0.3-1.2 0.4-2 0.4 -3.2 0-3.5-1.8-3.5-2.4v-0.1h1.3l0 0.1c0.1 1.2 1.8 1.3 2.3 1.3 1.6 0 2.5-1.2 2.5-2.3v-1.3c-0.5 0.8-1.6 1.4-2.7 1.4 -2.3 0-3.7-1.6-3.7-4.4 0-3.3 1.9-4.5 3.7-4.5 1.1 0 2 0.5 2.7 1.4L34.2 4.6zM34.1 8.8c0-1.6-0.9-3.3-2.6-3.3 -1.7 0-2.5 1.7-2.5 3.3 0 1.3 0.7 3.3 2.6 3.3C33.5 12.2 34.1 10.3 34.1 8.8zM40.4 4.4c-0.8 0-1.5 0.5-1.9 1.3l0-1h-1.2l0 0.1c0 0.1 0 0.3 0 0.4 0 0.5 0.1 1 0.1 1.5v6.7h1.2V8.1c0-1.7 0.9-2.6 2.2-2.6 0.1 0 0.2 0 0.4 0 0.1 0 0.2 0 0.3 0l0.1 0V4.4l-0.1 0C41.1 4.4 40.8 4.4 40.4 4.4zM49.1 13.2L49.1 13.2l-1.2 0.1 0-1c-0.4 0.7-1.5 1.3-2.7 1.3 -1.7 0-2.9-1.1-2.9-2.7 0-1.1 0.7-2.1 1.8-2.5 0.8-0.4 1.9-0.4 2.9-0.4 0.3 0 0.6 0 0.9 0V7.2c-0.1-1.2-0.6-1.7-1.9-1.7 -1.2 0-1.9 0.4-2 1.4l0 0.1h-1.3l0-0.1c0.2-1.1 0.9-2.5 3.3-2.5 1.1 0 1.9 0.3 2.4 0.8C48.8 5.7 49 6.4 49 7.3v4c0 0.5 0 1 0.1 1.5C49.1 12.9 49.1 13.1 49.1 13.2zM47.1 11.8c0.5-0.6 0.8-1.5 0.7-2.8 -0.1 0-0.3 0-0.5 0 -1.5 0-3.8 0-3.8 1.8 0 1.2 0.9 1.6 1.8 1.6C46.1 12.4 46.7 12.2 47.1 11.8zM54.2 12.4c-0.4 0-0.6-0.1-0.8-0.3 -0.2-0.2-0.3-0.5-0.3-0.8V5.8h1.9V4.6h-1.9V2.3l-1.2 0.5v1.8h-1.7v1.1h1.7v5.4c0 0.7 0 1.4 0.5 1.9 0.3 0.3 0.9 0.5 1.6 0.5 0.4 0 0.8-0.1 1.1-0.2l0.1 0v-1.1l-0.1 0C54.8 12.4 54.5 12.4 54.2 12.4zM63.7 9.2L63.7 9.2l-6.6 0.1c0 1 0.4 3.1 2.8 3.1 1.1 0 2.1-0.8 2.4-2l0-0.1h1.3l0 0.1c-0.5 2-1.8 3-3.9 3 -2.6 0-3.8-2.3-3.8-4.6 0-2.2 1.2-4.6 3.9-4.6C62.3 4.4 63.7 6.1 63.7 9.2zM62.4 8.2c-0.2-1.7-1.1-2.7-2.7-2.7 -1.7 0-2.4 1.4-2.6 2.7H62.4zM72.8 12.9l0 0.4h-1.2l-0.1-1.2c-0.7 0.9-1.7 1.4-2.9 1.4 -1.2 0-2.1-0.5-2.8-1.5 -0.5-0.8-0.8-1.9-0.8-3.1 0-2.2 0.9-4.6 3.6-4.6 1.2 0 2.2 0.5 2.8 1.4V0.9h1.2v10.4C72.8 11.9 72.8 12.4 72.8 12.9zM68.9 5.5c-2.3 0-2.5 2.5-2.5 3.3 0 1.1 0.2 3.6 2.3 3.6 2.4 0 2.8-2.3 2.8-3.7C71.5 8 71.3 5.5 68.9 5.5zM86.3 10.2c-0.3 1.6-1.7 2.1-2.9 2.1 -3.7 0-4-4-4-5.2 0-4.9 3-5.2 4-5.2 1.6 0 2.6 0.8 2.8 2l0 0.1h1.4l0-0.1c-0.2-2.4-2.3-3.2-4.2-3.2 -4 0-5.4 3.3-5.4 6.5 0 3.1 1.4 6.5 5.4 6.5 2.2 0 4-1.4 4.3-3.3l0-0.1L86.3 10.2 86.3 10.2zM89.4 13.3h1.2V0.9h-1.2V13.3zM99.5 5.8c0.6 0.8 1 1.9 1 3.1 0 1.2-0.3 2.3-1 3.1 -0.7 0.9-1.8 1.5-3.1 1.5 -1.3 0-2.3-0.5-3.1-1.5 -0.6-0.8-1-1.9-1-3.1 0-1.2 0.4-2.3 1-3.1 0.7-1 1.8-1.5 3.1-1.5C97.7 4.4 98.8 4.9 99.5 5.8zM99.2 9c0-1.7-0.9-3.5-2.8-3.5 -1.9 0-2.8 1.8-2.8 3.5 0 1.7 0.9 3.5 2.8 3.5C98.4 12.4 99.2 10.6 99.2 9zM109.1 11.3V4.6h-1.2v5c0 1.3-0.6 2.8-2.3 2.8 -1.3 0-2.1-0.8-2.1-2.2V4.6h-1.2V10c0 3.1 1.9 3.5 3.1 3.5 1.1 0 2-0.5 2.6-1.4l0 1.1h1.2l0-0.4C109.1 12.4 109.1 11.9 109.1 11.3zM118.6 13.3h-1.2l0-1.2c-0.7 0.9-1.7 1.4-2.9 1.4 -1.2 0-2.1-0.5-2.8-1.5 -0.5-0.8-0.8-1.9-0.8-3.1 0-2.2 0.9-4.6 3.6-4.6 1.1 0 2.2 0.5 2.8 1.4V0.9h1.2v10.4c0 0.5 0 1.1 0.1 1.6L118.6 13.3zM114.6 5.5c-2.3 0-2.5 2.5-2.5 3.3 0 1.1 0.2 3.6 2.3 3.6 2.4 0 2.8-2.3 2.8-3.7C117.2 8 117.1 5.5 114.6 5.5z"/><path class="st0" d="M131.9 75.7h-1.1V23.3h1.1V75.7z"/><path class="st0" d="M151.7 58.4h-1.3l-4.4 11 0 0.1h1.2l1.2-3h5.3l1.2 2.9 0 0.1h1.3L151.7 58.4 151.7 58.4zM153.3 65.5h-4.5l2.3-5.9L153.3 65.5zM160.8 61.5c-1 0-2 0.5-2.6 1.2l0-1h-1.1l0 0.1c0 0.1 0 0.3 0 0.4 0 0.4 0.1 0.9 0.1 1.3v8.9h1.1v-4c0.6 0.8 1.6 1.3 2.6 1.3 2.2 0 3.2-2.1 3.2-4.2C164 63.6 163.2 61.5 160.8 61.5zM162.9 65.5c0 0.8-0.2 3.3-2.1 3.3 -2.2 0-2.5-2.1-2.5-3.3 0-0.7 0.2-2.9 2.4-2.9C162.3 62.5 162.9 64 162.9 65.5zM168.9 61.5c-1 0-2 0.5-2.6 1.2l0-1h-1.1l0 0.1c0 0.1 0 0.3 0 0.4 0 0.4 0.1 0.9 0 1.3v8.9h1.1v-4c0.6 0.8 1.6 1.3 2.6 1.3 2.2 0 3.2-2.1 3.2-4.2 0-1.1-0.3-2.1-0.7-2.8C170.9 61.9 170 61.5 168.9 61.5zM171 65.5c0 0.8-0.2 3.3-2.1 3.3 -2.2 0-2.5-2.1-2.5-3.3 0-0.7 0.2-2.9 2.4-2.9C170.4 62.5 171 64 171 65.5zM173.9 58.4h1.1v11.2h-1.1V58.4zM176.9 58.4h1.2v1.3h-1.2V58.4zM177 61.7h1.1v7.8H177V61.7zM185 67h1.2l0 0.1c-0.2 1.8-1.3 2.7-3.1 2.7 -2.4 0-3.4-2.1-3.4-4.1 0-2 1.1-4.1 3.5-4.1 1.7 0 2.9 1.1 3 2.7l0 0.1H185l0-0.1c-0.1-1.1-0.7-1.7-2-1.7 -1.4 0-2.2 1.6-2.2 3.1 0 1.6 0.7 3.1 2.2 3.1C184.2 68.7 185 68.1 185 67L185 67zM193.4 69c0-0.4-0.1-0.9 0-1.3v-3.6c0-0.8-0.2-1.4-0.6-1.9 -0.5-0.5-1.2-0.7-2.2-0.7 -2.2 0-2.8 1.2-2.9 2.2l0 0.1h1.2l0-0.1c0.1-0.9 0.7-1.2 1.8-1.2 1.1 0 1.6 0.5 1.7 1.6v0.6c-0.3 0-0.5 0-0.8 0 -0.9 0-1.8 0-2.6 0.3 -1 0.4-1.6 1.3-1.6 2.3 0 1.5 1.1 2.4 2.6 2.4 1 0 2-0.6 2.4-1.2l0 0.9h1.1l0-0.1C193.4 69.3 193.4 69.2 193.4 69zM190.1 68.7c-0.8 0-1.6-0.4-1.6-1.4 0-1.6 2-1.6 3.4-1.6 0.2 0 0.3 0 0.4 0 0.1 1.1-0.2 2-0.6 2.5C191.3 68.5 190.7 68.7 190.1 68.7zM198.8 68.7l0.1 0v1l-0.1 0c-0.2 0.1-0.6 0.1-1 0.1 -0.7 0-1.2-0.1-1.5-0.5 -0.4-0.4-0.4-1.1-0.4-1.7v-4.8h-1.5v-1h1.5v-1.6l1.1-0.5v2.1h1.7v1h-1.7v5c0 0.3 0.1 0.6 0.2 0.7 0.2 0.2 0.4 0.2 0.7 0.2C198.3 68.7 198.5 68.7 198.8 68.7zM200.3 61.7h1.1v7.8h-1.1V61.7zM200.2 58.4h1.2v1.3h-1.2V58.4zM206.6 61.5c-1.1 0-2.1 0.5-2.8 1.3 -0.6 0.7-0.9 1.7-0.9 2.8 0 1.1 0.3 2.1 0.9 2.8 0.7 0.9 1.6 1.3 2.8 1.3 1.1 0 2.1-0.5 2.8-1.3 0.6-0.7 0.9-1.7 0.9-2.8 0-1.1-0.3-2.1-0.9-2.8C208.7 61.9 207.7 61.5 206.6 61.5zM206.6 68.7c-1.7 0-2.5-1.6-2.5-3.1 0-1.5 0.8-3.1 2.5-3.1 1.7 0 2.5 1.6 2.5 3.1C209.1 67.1 208.3 68.7 206.6 68.7zM218 64.7v4.9h-1.1v-5c0-1.3-0.7-2-1.9-2 -1.6 0-2.1 1.4-2.1 2.5v4.5h-1.1v-6c0-0.5 0-1-0.1-1.5l0-0.4h1.1l0 1c0.5-0.8 1.4-1.2 2.3-1.2C216.2 61.5 218 61.9 218 64.7zM225.7 67.2c0 1.8-1.7 2.6-3.3 2.6 -1.3 0-2.9-0.6-3-2.4v-0.1h1.2l0 0.1c0.1 1.2 1.1 1.4 2 1.4 1 0 1.9-0.4 1.9-1.4 0-1-1-1.2-2.1-1.4l-0.3-0.1c-1.1-0.3-2.5-0.6-2.5-2.1 0-1.6 1.5-2.2 2.9-2.2 1.8 0 2.8 0.8 2.9 2.2l0 0.1h-1.2l0-0.1c-0.1-1-1-1.2-1.8-1.2 -0.8 0-1.6 0.3-1.6 1.1 0 0.7 0.7 0.9 1.8 1.2 0.5 0.1 1.1 0.3 1.7 0.5C225.2 65.6 225.7 66.3 225.7 67.2zM239.7 62.8l0-0.4h-1.2l0 0.1c0.1 1.3-0.2 2.8-0.6 3.9l-3.1-3.3c0.9-0.7 2-1.5 2-2.9 0-1-0.8-2-2.5-2 -1.2 0-2.5 0.7-2.5 2.1 0 1.1 0.8 2 1.4 2.7v0l0 0L233 63c-1.2 0.8-2.6 1.7-2.6 3.4 0 2 1.7 3.3 4.1 3.3 1.3 0 2.4-0.5 3.4-1.6l1.3 1.4h1.6l-2.2-2.4C239.4 65.8 239.5 64.3 239.7 62.8zM232.9 60.2c0-0.9 1-1 1.3-1 0.6 0 1.3 0.3 1.3 1 0 0.8-0.6 1.3-1.2 1.8 -0.1 0.1-0.2 0.2-0.3 0.3C233.3 61.5 232.9 60.8 232.9 60.2zM233.8 63.8l3.3 3.6c-0.7 0.7-1.5 1.3-2.8 1.3 -1.3 0-2.8-0.9-2.8-2.5C231.6 65.3 233.2 64.1 233.8 63.8zM248.3 58.4c-0.1 0-0.2 0-0.2 0h-2.8v11.2h1.2v-4.8h1.7c0.1 0 0.2 0 0.2 0h0c2.8 0 4.3-1.1 4.3-3.2C252.6 59.5 251.1 58.4 248.3 58.4zM248.7 63.7h-2.3v-4.2h2.3c1.8 0 2.7 0.7 2.7 2.1C251.4 63 250.5 63.7 248.7 63.7zM254.1 58.4h1.1v11.2h-1.1V58.4zM262.7 69.1c0-0.4-0.1-0.9 0-1.3v-3.6c0-0.8-0.2-1.4-0.6-1.9 -0.5-0.5-1.2-0.7-2.2-0.7 -2.2 0-2.8 1.2-2.9 2.2l0 0.1h1.1l0-0.1c0.1-0.9 0.7-1.2 1.8-1.2 1.1 0 1.6 0.5 1.7 1.6v0.6c-0.3 0-0.5 0-0.8 0 -0.9 0-1.8 0-2.6 0.3 -1 0.4-1.6 1.3-1.6 2.3 0 1.5 1.1 2.4 2.6 2.4 1 0 2-0.6 2.4-1.2l0 0.9h1.1l0-0.1C262.7 69.3 262.7 69.2 262.7 69.1zM259.4 68.7c-0.8 0-1.6-0.4-1.6-1.4 0-1.6 2-1.6 3.4-1.6 0.2 0 0.3 0 0.4 0 0.1 1.1-0.2 2-0.6 2.5C260.6 68.6 260 68.7 259.4 68.7zM268.1 68.7l0.1 0v1l-0.1 0c-0.2 0.1-0.6 0.1-1 0.1 -0.7 0-1.2-0.1-1.5-0.5 -0.4-0.4-0.4-1.1-0.4-1.7v-4.8h-1.5v-1h1.5v-1.6l1.1-0.5v2.1h1.7v1h-1.7v5c0 0.3 0.1 0.6 0.2 0.7 0.2 0.2 0.4 0.2 0.7 0.2C267.6 68.7 267.9 68.7 268.1 68.7zM273.6 58.3L273.6 58.3l0.1 0.9 -0.1 0c-0.2 0-0.4-0.1-0.6-0.1 -0.5 0-0.8 0.1-0.9 0.3 -0.2 0.3-0.2 0.7-0.2 1.4v0.9h1.7v1h-1.7v6.8h-1.1v-6.8h-1.5v-1h1.5v-1.5c0-1.4 0.6-2 1.9-2 0.2 0 0.4 0.1 0.7 0.1C273.4 58.3 273.5 58.3 273.6 58.3zM277.7 61.5c-1.1 0-2.1 0.5-2.8 1.3 -0.6 0.7-0.9 1.7-0.9 2.8 0 1.1 0.3 2.1 0.9 2.8 0.7 0.9 1.6 1.3 2.8 1.3 1.1 0 2.1-0.5 2.8-1.3 0.6-0.7 0.9-1.7 0.9-2.8 0-1.1-0.3-2.1-0.9-2.8C279.8 61.9 278.9 61.5 277.7 61.5zM277.7 68.7c-1.7 0-2.5-1.6-2.5-3.1 0-1.5 0.8-3.1 2.5-3.1 1.7 0 2.5 1.6 2.5 3.1C280.2 67.1 279.4 68.7 277.7 68.7zM286.3 61.5l0.1 0v1.1l-0.1 0c-0.1 0-0.1 0-0.2 0 -0.1 0-0.2 0-0.3 0 -1.2 0-2 0.9-2 2.4v4.7h-1.1v-6c0-0.4 0-0.9 0-1.3 0-0.1 0-0.3 0-0.4l0-0.1h1.1l0 0.9c0.3-0.7 1-1.1 1.7-1.1C285.7 61.5 286 61.5 286.3 61.5zM299 64.7v4.9h-1.1v-5c0-1.3-0.7-2-1.9-2 -1.6 0-2.1 1.4-2.1 2.5v4.5h-1.1v-5c0-1.3-0.7-2-1.9-2 -1.6 0-2.1 1.4-2.1 2.5v4.5h-1.1v-6c0-0.5 0-1-0.1-1.4l0-0.4h1.1l0 1c0.5-0.8 1.4-1.2 2.3-1.2 1.2 0 2.1 0.6 2.5 1.6 0.7-1 1.6-1.6 2.6-1.6C298.6 61.5 299 63.5 299 64.7zM311.9 66.6c0 2.1-1.5 3.2-4.4 3.2 -1.9 0-3.3-1.4-3.4-3.2l0-0.1h1.2l0 0.1c0 1.4 0.9 2.1 2.7 2.1 1.2 0 2.6-0.7 2.6-2 0-0.9-0.5-1.5-1.7-1.8 -0.2-0.1-0.4-0.1-0.6-0.2 -1.8-0.6-3.9-1.2-3.9-3.4 0-2 1.9-3.1 3.6-3.1 1 0 3.4 0.3 3.7 2.7l0 0.1h-1.2l0-0.1c0-1.4-1.5-1.6-2.3-1.6 -1 0-2.5 0.5-2.5 1.8 0 1.4 1.4 1.9 2.8 2.3C310.2 63.9 311.9 64.5 311.9 66.6zM316.6 61.5c-2.4 0-3.5 2.1-3.5 4.1 0 2.1 1.1 4.1 3.4 4.1 1.9 0 3.1-0.9 3.5-2.7l0-0.1H319l0 0.1c-0.2 1-1.1 1.8-2.1 1.8 -2.2 0-2.5-1.9-2.6-2.8h5.9v-0.1C320.2 63 318.9 61.5 316.6 61.5zM314.3 64.9c0.1-1.1 0.8-2.4 2.3-2.4 1.4 0 2.2 0.9 2.4 2.4H314.3zM325.2 61.5l0.1 0v1.1l-0.1 0c-0.1 0-0.1 0-0.2 0 -0.1 0-0.2 0-0.3 0 -1.2 0-2 0.9-2 2.4v4.7h-1.1v-6c0-0.4 0-0.9 0-1.3 0-0.1 0-0.3 0-0.4l0-0.1h1.1l0 0.9c0.3-0.7 1-1.1 1.7-1.1C324.6 61.5 324.9 61.5 325.2 61.5zM332.4 61.7h1.2l-0.1 0.1 -3.1 7.7h-1.1l0-0.1 -3.2-7.8h1.2l0 0.1 2.6 6.2L332.4 61.7zM334.7 58.4h1.2v1.3h-1.2V58.4zM334.8 61.7h1.1v7.8h-1.1V61.7zM342.5 67h1.2l0 0.1c-0.2 1.8-1.3 2.7-3.1 2.7 -2.4 0-3.4-2.1-3.4-4.1 0-2 1.1-4.1 3.5-4.1 1.7 0 2.9 1.1 3 2.7l0 0.1h-1.2l0-0.1c-0.1-1.1-0.7-1.7-2-1.7 -1.4 0-2.2 1.6-2.2 3.1 0 1.6 0.7 3.1 2.2 3.1C341.6 68.7 342.4 68.1 342.5 67L342.5 67zM348.2 61.5c-2.4 0-3.5 2.1-3.5 4.1 0 2.1 1.1 4.1 3.4 4.1 1.9 0 3.1-0.9 3.5-2.7l0-0.1h-1.1l0 0.1c-0.2 1-1.1 1.8-2.1 1.8 -2.2 0-2.5-1.9-2.6-2.8h5.9v-0.1C351.8 63 350.5 61.5 348.2 61.5zM345.9 64.9c0.1-1.1 0.8-2.4 2.3-2.4 1.4 0 2.2 0.9 2.4 2.4H345.9zM358.9 67.2c0 1.8-1.7 2.6-3.3 2.6 -1.3 0-2.9-0.6-3-2.4l0-0.1h1.2l0 0.1c0.1 1.2 1.1 1.4 2 1.4 1 0 1.9-0.4 1.9-1.4 0-1-1-1.2-2.1-1.4l-0.3-0.1c-1-0.3-2.5-0.6-2.5-2.1 0-1.6 1.5-2.2 2.9-2.2 1.8 0 2.8 0.8 2.9 2.2l0 0.1h-1.2l0-0.1c-0.1-1-1-1.2-1.8-1.2 -0.8 0-1.6 0.3-1.6 1.1 0 0.7 0.7 0.9 1.8 1.2 0.5 0.1 1.1 0.3 1.7 0.5C358.4 65.6 358.9 66.3 358.9 67.2z"/><path class="st0" d="M150.1 49.5V26.9h2v22.5H150.1zM158 49.5h-1.9V37.4c0-1.2-0.1-2.5-0.2-3.5h1.9l0.1 2.3 0.1 0.1c1.1-1.9 2.9-2.8 4.9-2.8 5.1 0 5.5 4.5 5.5 6.3v9.8h-1.9V39.4c0-2.7-1.6-4.3-4.1-4.3 -3.1 0-4.5 2.6-4.5 5.4V49.5zM173.4 35.6h-3.1v-1.7h3.1v-3.3l1.9-0.8v4.1h3.5v1.7h-3.5V46c0 1.4 0.7 2.2 2.1 2.2 0.6 0 1.1 0 1.6-0.2v1.6c-0.6 0.2-1.3 0.3-1.9 0.3 -4 0-3.7-2.5-3.7-4.6V35.6zM182.7 42.1c0.1 3.3 1.6 6.1 5.4 6.1 2.2 0 4-1.6 4.5-3.7h2c-1 3.7-3.3 5.4-7.1 5.4 -4.7 0-6.8-4-6.8-8.3 0-4.2 2.3-8.3 7-8.3 5.2 0 7.1 3.8 7.1 8.7H182.7zM192.7 40.4c-0.2-3-1.8-5.3-5.1-5.3 -3 0-4.7 2.5-4.9 5.3H192.7zM209.3 33.9h1.9c-0.1 1.1-0.2 2.3-0.2 3.5v9.4c0 3.1 0.2 6.4-3.3 8 -1.2 0.6-2.1 0.7-3.5 0.7 -2.8 0-6.2-1-6.2-4.2h2c0.2 1.9 2.4 2.5 4.4 2.5 2.4 0 4.7-1.7 4.7-4.3v-2.9h-0.1c-0.9 1.8-3 2.9-5.1 2.9 -4.7 0-6.7-3.6-6.7-7.9 0-4.2 1.9-8.1 6.7-8.1 2.3 0 3.9 1.1 5.1 2.9l0.1-0.1L209.3 33.9zM204.2 35.1c-3.4 0-4.8 3.4-4.8 6.3 0 2.9 1.5 6.3 4.9 6.3 3.6 0 4.9-3.3 4.9-6.4C209.2 38.3 207.5 35.1 204.2 35.1zM216.8 49.5h-1.9V37.4c0-1.2-0.1-2.5-0.2-3.5h1.9l0.1 2.3h0.1c0.6-1.6 2-2.7 3.5-2.8 0.6 0 1.2 0 1.9 0v1.8c-0.4 0-0.8-0.1-1.1-0.1 -2.8 0-4.2 2-4.3 5V49.5zM233.7 38.5c-0.2-2.5-1.5-3.4-3.7-3.4 -2 0-3.6 0.6-3.8 2.7h-2c0.5-3.2 2.9-4.4 5.8-4.4 3.5 0 5.6 1.6 5.5 5.2V46c0 1.2 0.1 2.5 0.2 3.5h-1.9l-0.1-2.3h-0.1l-0.1 0.2c-0.7 1.3-2.8 2.6-4.9 2.6 -2.9 0-5.2-1.8-5.2-4.8 0-2.1 1.3-3.7 3.1-4.5 2.1-0.9 4.8-0.6 7.1-0.7V38.5zM229 48.2c4.1 0 4.8-3.4 4.7-6.6 -2.6 0.1-8.2-0.4-8.2 3.5C225.5 47.2 227.1 48.2 229 48.2zM240.7 35.6h-3.1v-1.7h3.1v-3.3l1.9-0.8v4.1h3.5v1.7h-3.5V46c0 1.4 0.7 2.2 2.1 2.2 0.6 0 1.1 0 1.6-0.2v1.6c-0.6 0.2-1.3 0.3-1.9 0.3 -3.9 0-3.7-2.5-3.7-4.6V35.6zM250 42.1c0.1 3.3 1.6 6.1 5.4 6.1 2.2 0 4-1.6 4.5-3.7h2c-1 3.7-3.3 5.4-7.1 5.4 -4.7 0-6.8-4-6.8-8.3 0-4.2 2.3-8.3 7-8.3 5.2 0 7.1 3.8 7.1 8.7H250zM260 40.4c-0.2-3-1.8-5.3-5.1-5.3 -3 0-4.7 2.5-4.9 5.3H260zM276.5 47.2l-0.1-0.1c-1.3 1.9-3.2 2.9-5.3 2.9 -4.6 0-6.4-4.4-6.4-8.3 0-4 1.8-8.2 6.4-8.2 2.1 0 4.3 1 5.3 2.8l0.1-0.1V27h1.9V46c0 1.2 0.1 2.5 0.2 3.5h-1.9L276.5 47.2zM271.4 35.1c-3.5 0-4.7 3.3-4.7 6.3 0 2.9 0.8 6.8 4.4 6.8 4.1 0 5.3-3.4 5.3-6.9C276.5 38.1 275.1 35.1 271.4 35.1zM302.5 32.3c-0.4-2.7-2.7-3.9-5.3-3.9 -5.8 0-7.5 5.2-7.5 9.8 0 4.6 1.7 9.8 7.5 9.8 2.5 0 5-1.2 5.5-4h2.2c-0.7 3.8-4.1 5.9-7.7 5.9 -6.8 0-9.7-5.5-9.7-11.7 0-6.2 2.9-11.7 9.7-11.7 3.7 0 7.1 1.7 7.5 5.7H302.5zM310 49.5h-1.9V27h1.9V49.5zM327.5 41.7c0 4.1-2.3 8.3-7.3 8.3 -5 0-7.3-4.2-7.3-8.3 0-4.1 2.3-8.3 7.3-8.3C325.2 33.4 327.5 37.6 327.5 41.7zM320.3 35.1c-3.8 0-5.3 3.7-5.3 6.6 0 2.9 1.5 6.6 5.3 6.6 3.8 0 5.3-3.7 5.3-6.6C325.5 38.8 324 35.1 320.3 35.1zM340.4 33.9h1.9V46c0 1.2 0.1 2.5 0.2 3.5h-1.9l-0.1-2.3 -0.1-0.1c-1.1 1.9-2.9 2.8-4.9 2.8 -5.1 0-5.5-4.5-5.5-6.3v-9.8h1.9v10.1c0 2.7 1.6 4.3 4.1 4.3 3.1 0 4.5-2.6 4.5-5.4V33.9zM356.8 47.2l-0.1-0.1c-1.3 1.9-3.2 2.9-5.3 2.9 -4.6 0-6.4-4.4-6.4-8.3 0-4 1.8-8.2 6.4-8.2 2.1 0 4.3 1 5.3 2.8l0.1-0.1V27h1.9V46c0 1.2 0.1 2.5 0.2 3.5h-1.9L356.8 47.2zM351.7 35.1c-3.5 0-4.7 3.3-4.7 6.3 0 2.9 0.8 6.8 4.4 6.8 4.1 0 5.3-3.4 5.3-6.9C356.8 38.1 355.4 35.1 351.7 35.1z"/><path class="st0" d="M49.4 51.7h7.4l-3.9-6.3 -7.2 11.4h-3.3l8.7-13.7c0.4-0.6 1-0.9 1.7-0.9 0.7 0 1.3 0.3 1.7 0.9l8.7 13.7H60l-1.5-2.5H51L49.4 51.7zM83.3 54.2V42.4h-2.8v13c0 0.4 0.1 0.7 0.4 1 0.3 0.3 0.6 0.4 1 0.4h12.6l1.6-2.5H83.3zM37.4 52.1c2.7 0 4.9-2.2 4.9-4.9 0-2.7-2.2-4.9-4.9-4.9H25.3v14.4h2.8V44.9h9.2c1.3 0 2.3 1 2.3 2.3 0 1.3-1 2.3-2.3 2.3l-7.8 0 8.3 7.2h4l-5.6-4.7L37.4 52.1zM16.7 56.8c4 0 7.2-3.2 7.2-7.2 0-4-3.2-7.2-7.2-7.2H8.3c-4 0-7.2 3.2-7.2 7.2 0 4 3.2 7.2 7.2 7.2H16.7zM8.5 54.2c-2.6 0-4.7-2.1-4.7-4.7 0-2.6 2.1-4.7 4.7-4.7h8c2.6 0 4.7 2.1 4.7 4.7 0 2.6-2.1 4.7-4.7 4.7H8.5zM77.6 56.8l1.6-2.5h-10c-2.6 0-4.7-2.1-4.7-4.7 0-2.6 2.1-4.7 4.7-4.7h8.1l1.6-2.5h-9.9c-4 0-7.2 3.2-7.2 7.2 0 4 3.2 7.2 7.2 7.2H77.6zM102.9 54.2c-2.1 0-3.9-1.4-4.5-3.4h11.8l1.6-2.5H98.4c0.6-2 2.4-3.4 4.5-3.4h8.1l1.6-2.5h-9.9c-4 0-7.2 3.2-7.2 7.2 0 4 3.2 7.2 7.2 7.2h8.6l1.6-2.5H102.9zM115.4 45.2c0.7 0 1.3-0.6 1.3-1.3 0-0.7-0.6-1.3-1.3-1.3 -0.7 0-1.3 0.6-1.3 1.3C114.2 44.6 114.7 45.2 115.4 45.2zM113.8 43.9c0-0.9 0.7-1.6 1.6-1.6 0.9 0 1.6 0.7 1.6 1.6 0 0.9-0.7 1.6-1.6 1.6C114.5 45.5 113.8 44.8 113.8 43.9zM114.8 42.9v1.8h0.4v-0.7h0.2l0.4 0.7h0.4l-0.4-0.8c0 0 0.1 0 0.1 0 0.2-0.1 0.2-0.2 0.2-0.3 0-0.1 0-0.1 0-0.1 0-0.1 0-0.4-0.3-0.5 -0.1 0-0.2 0-0.5 0H114.8zM115.2 43.8v-0.5h0.1c0.2 0 0.2 0 0.3 0 0.1 0 0.1 0.1 0.1 0.2 0 0.1 0 0.1-0.1 0.2 -0.1 0.1-0.2 0.1-0.3 0.1H115.2z"/><rect class="st1" width="360" height="77"/></svg>