<svg xmlns="http://www.w3.org/2000/svg" width="165.8" height="173.3" viewBox="0 0 165.8 173.3"><path fill="#8AADBE" d="M38.8 33c-.3-2.1-1.6-3.9-3.5-4.8l-9.8-4.6c0 .1-1 4.3-5.7 6.8-4.8-2.5-5.7-6.7-5.7-6.8l-9.8 4.6C2.4 29.2 1.1 31 .8 33L0 41.6h39.3l-.5-8.6zM12.4 12.8l.3 2.2c.1.7.7 1.3 1.4 1.3.8 5.5 4.9 5.7 5.6 5.7.6 0 4.8-.2 5.6-5.7.7 0 1.4-.5 1.5-1.3l.3-2.2c.1-.6-.2-1.2-.7-1.5.2-.9.5-2.7.5-4.2 0-2.7-2.4-5.4-5.6-5.7l-1-1.4c-7.7.4-7.7 6.7-7.7 6.7v.8c0 1.4.3 3 .5 3.9-.5.2-.8.8-.7 1.4zm21 77.7V67.8h-5.2v-6.3C28.2 55.1 23 50 16.7 50S5.2 55.2 5.2 61.5v6.3H0v22.7m18.6-10.9v4.2c0 1-.8 1.9-1.9 1.9s-1.9-.8-1.9-1.9v-4.2c-1.1-.6-1.9-1.8-1.9-3.2 0-2.1 1.7-3.7 3.7-3.7s3.7 1.7 3.7 3.7c.1 1.3-.6 2.5-1.7 3.2zM23 67.8H10.4v-6.3c0-3.5 2.8-6.3 6.3-6.3S23 58 23 61.5v6.3z"/><path fill="#324B5C" d="M88.8 33c-.3-2.1-1.6-3.9-3.5-4.8l-9.8-4.6c0 .1-1 4.3-5.7 6.8-4.8-2.5-5.7-6.7-5.7-6.8l-9.8 4.6c-1.9.9-3.2 2.7-3.5 4.8l-.8 8.6h39.3l-.5-8.6zM62.4 12.8l.3 2.2c.1.7.7 1.3 1.4 1.3.8 5.5 4.9 5.7 5.6 5.7.6 0 4.8-.2 5.6-5.7.7 0 1.4-.5 1.5-1.3l.3-2.2c.1-.6-.2-1.2-.7-1.5.2-.9.5-2.7.5-4.2 0-2.7-2.4-5.4-5.6-5.7l-1-1.4c-7.7.4-7.7 6.7-7.7 6.7v.8c0 1.4.3 3 .5 3.9-.5.2-.8.8-.7 1.4zm21 77.7V67.8h-5.2v-6.3C78.2 55.1 73 50 66.7 50s-11.5 5.2-11.5 11.5v6.3H50v22.7m18.6-10.9v4.2c0 1-.8 1.9-1.9 1.9s-1.9-.8-1.9-1.9v-4.2c-1.1-.6-1.9-1.8-1.9-3.2 0-2.1 1.7-3.7 3.7-3.7s3.7 1.7 3.7 3.7c.1 1.3-.6 2.5-1.7 3.2zM73 67.8H60.4v-6.3c0-3.5 2.8-6.3 6.3-6.3S73 58 73 61.5v6.3zM68.8 100c-10.4 0-18.8 8.4-18.8 18.8s8.4 18.8 18.8 18.8 18.8-8.4 18.8-18.8S79.2 100 68.8 100zm2.1 30h-4.2v-14h4.2v14zm0-16.8h-4.2V109h4.2v4.2z"/><path fill="#475C6C" d="M16.7 130h4.2v-14h-4.2v14zm0-21v4.2h4.2V109h-4.2z"/><path fill="#475C6C" d="M18.8 100C8.4 100 0 108.4 0 118.8s8.4 18.8 18.8 18.8 18.8-8.4 18.8-18.8S29.2 100 18.8 100zm0 35.6c-9.3 0-16.8-7.5-16.8-16.8S9.6 102 18.8 102s16.8 7.5 16.8 16.8-7.5 16.8-16.8 16.8z"/><path fill="none" d="M.1 150h180.4v41.1H.1V150z"/><g><path fill="#FFF" d="M69 163.5h10.6l-5.6-9-10.2 16.3h-4.7l12.5-19.5c.5-.8 1.4-1.3 2.4-1.3s1.9.5 2.4 1.2l12.5 19.6h-4.7l-2.2-3.6H71.4l-2.4-3.7zm48.5 3.7v-17h-4v18.6c0 .5.2 1 .6 1.4s.9.6 1.5.6h18.1l2.3-3.6h-18.5zM52 164.1c3.8 0 7-3.1 7-7 0-3.8-3.1-7-7-7H34.7v20.6h4v-17h13.1c1.8 0 3.3 1.5 3.3 3.3s-1.5 3.3-3.3 3.3H40.6l11.8 10.3h5.8l-8-6.7 1.8.2zm-41.7 6.7c-5.7 0-10.3-4.6-10.3-10.3s4.6-10.3 10.3-10.3h12c5.7 0 10.3 4.6 10.3 10.3s-4.6 10.3-10.3 10.3h-12zm11.7-3.6c3.7 0 6.7-3 6.7-6.7s-3-6.7-6.7-6.7H10.6c-3.7 0-6.7 3-6.7 6.7s3 6.7 6.7 6.7H22zm75.2 3.6c-5.7 0-10.3-4.6-10.3-10.3s4.6-10.3 10.3-10.3h14.2l-2.3 3.6H97.5c-3.7 0-6.7 3-6.7 6.7s3 6.7 6.7 6.7h14.3l-2.3 3.6H97.2zm48.4-3.6c-3 0-5.6-2-6.4-4.8h16.9l2.3-3.6h-19.3c.8-2.8 3.4-4.9 6.4-4.9h11.6l2.3-3.6h-14.2c-5.7 0-10.3 4.6-10.3 10.3s4.6 10.3 10.3 10.3h12.2l2.3-3.6-14.1-.1zm16.1-14.8c0-1 .8-1.8 1.8-1.8s1.8.8 1.8 1.8-.8 1.8-1.8 1.8-1.8-.8-1.8-1.8zm1.8 2.3c1.3 0 2.3-1 2.3-2.3s-1-2.3-2.3-2.3-2.3 1-2.3 2.3 1.1 2.3 2.3 2.3zm-.2-3.7c.4 0 .5 0 .7.1.5.2.5.6.5.7v.2c0 .1-.1.3-.3.4l-.1.1.6 1.1h-.7l-.5-1h-.4v1h-.5V151h.7zm.2 1.2c.2 0 .3 0 .4-.2 0-.1.1-.1.1-.2s-.1-.3-.2-.3h-.6v.7h.3z"/></g><g><circle fill="#D80000" cx="118.8" cy="19.8" r="18.8"/><path fill="none" d="M113.5 3.9h10.4v38.6h-10.4V3.9z"/><text transform="translate(113.48 30.726)" fill="#FFF" font-family="'Arial-BoldMT'" font-size="31.276">!</text></g></svg>